<?xml version="1.0"?><svg style="enable-background:new 0 0 64 64;" version="1.1" viewBox="0 0 64 64" xml:space="preserve" xmlns="http://www.w3.org/2000/svg" xmlns:xlink="http://www.w3.org/1999/xlink"><style type="text/css">
	.st0{fill:none;stroke:#000000;stroke-width:2;stroke-linecap:round;stroke-linejoin:round;stroke-miterlimit:10;}
	.st1{fill:none;stroke:#000000;stroke-width:2;stroke-linecap:round;stroke-linejoin:round;}
</style><g id="guides"/><g id="_x32_5._checking"/><g id="_x32_4._faucet"/><g id="_x32_3._drink"/><g id="_x32_2._hotel_key"/><g id="_x32_1._rating"/><g id="_x32_0._map"/><g id="_x31_9._wifi"/><g id="_x31_8._swimming_pool"/><g id="_x31_7._booking"/><g id="_x31_6._pasport"/><g id="_x31_5._coffee_cup"/><g id="_x31_4._bathtub"/><g id="_x31_3._bedroom"/><g id="_x31_2._air_conditioner"/><g id="_x31_1._breakfast"/><g id="_x31_0._parking_lot"/><g id="_x39_._room_service"/><g id="_x38_._elevator"><ellipse class="st0" cx="32" cy="26.5" rx="3.5" ry="3.5" transform="matrix(0.7071068 -0.7071068 0.7071068 0.7071068 -9.3657465 30.3890877)"/><line class="st0" x1="4" x2="60" y1="60" y2="60"/><rect class="st0" height="10" width="56" x="4" y="4"/><path class="st0" d="M28,40l0.0000477,4.9999809C28.0000572,46.104557,27.1046238,47,26.0000477,47H26   c-1.1045704,0-2-0.8954315-2-2v-8c0-2.2091408,1.7908611-4,4-4h8c2.2091408,0,4,1.7908592,4,4v8.0000114   C40,46.1045761,39.1045761,47,38.0000114,47h-0.0000038c-1.1045609,0-1.9999847-0.8954201-1.9999886-1.9999809L36,40"/><polyline class="st0" points="28,45 28,60 32,60 32,47  "/><polyline class="st0" points="32,47 32,60 36,60 36,45  "/><rect class="st0" height="46" width="9" x="47" y="14"/><rect class="st0" height="46" width="9" x="8" y="14"/><line class="st0" x1="26" x2="28" y1="10" y2="8"/><line class="st0" x1="30" x2="28" y1="10" y2="8"/><line class="st0" x1="34" x2="36" y1="8" y2="10"/><line class="st0" x1="38" x2="36" y1="8" y2="10"/></g><g id="_x37_._reception"/><g id="_x36_._relax"/><g id="_x35_._car_rental"/><g id="_x34_._rental"/><g id="_x33_._smoking_area"/><g id="_x32_._exercise"/><g id="_x31_._luggage"/></svg>