<svg xmlns="http://www.w3.org/2000/svg" xml:space="preserve" id="light" x="0" y="0" version="1.1" viewBox="0 0 86.17 82.37">
  <path d="M42.94 7.45c-.81.09-1.42.78-1.4 1.6v9.44c0 .42.16.83.45 1.13.3.3.7.47 1.12.47s.82-.17 1.12-.47c.3-.3.46-.71.45-1.13V9.05c0-.45-.18-.89-.51-1.19a1.55 1.55 0 0 0-1.24-.4Zm-23.36 9.69c-.61.06-1.12.46-1.33 1.04s-.06 1.21.37 1.64l6.69 6.69c.28.35.69.56 1.14.58a1.58 1.58 0 0 0 1.66-1.66c-.02-.45-.24-.86-.58-1.14l-6.66-6.69c-.33-.34-.8-.51-1.28-.47Zm46.71 0c-.36.04-.68.21-.93.47L58.7 24.3c-.35.28-.56.69-.58 1.14a1.58 1.58 0 0 0 1.66 1.66c.45-.02.86-.24 1.14-.58l6.69-6.69c.48-.47.6-1.2.31-1.81a1.55 1.55 0 0 0-1.61-.87Zm-23.18 6.07c-10.41 0-18.88 8.47-18.88 18.88s8.47 18.88 18.88 18.88 18.88-8.47 18.88-18.88-8.47-18.88-18.88-18.88Zm0 3.15c8.71 0 15.73 7.03 15.73 15.73s-7.03 15.73-15.73 15.73-15.73-7.03-15.73-15.73 7.03-15.73 15.73-15.73ZM9.92 40.52c-.42.02-.81.2-1.09.51s-.43.72-.41 1.13c.02.42.2.81.51 1.09s.72.43 1.13.41h9.44c.42 0 .83-.16 1.13-.45.3-.3.47-.7.47-1.12s-.17-.82-.47-1.12c-.3-.3-.71-.46-1.13-.45H9.91Zm56.64 0c-.42.02-.81.2-1.09.51s-.43.72-.41 1.13c.02.42.2.81.51 1.09s.72.43 1.13.41h9.44c.42 0 .83-.16 1.13-.45.3-.3.47-.7.47-1.12s-.17-.82-.47-1.12c-.3-.3-.71-.46-1.13-.45h-9.59ZM26.25 57.18c-.36.04-.68.21-.93.47l-6.69 6.69c-.3.29-.47.7-.48 1.12 0 .42.17.83.47 1.13.3.3.71.46 1.13.45.42 0 .82-.18 1.12-.49l6.66-6.66c.49-.47.63-1.2.34-1.82-.29-.62-.94-.97-1.62-.89Zm33.38 0c-.61.06-1.13.47-1.34 1.05-.2.58-.04 1.23.4 1.65l6.66 6.66c.29.31.69.48 1.12.49.42 0 .83-.16 1.13-.45.3-.3.47-.7.47-1.13 0-.42-.17-.83-.48-1.12l-6.69-6.69c-.33-.34-.8-.51-1.28-.47Zm-16.69 6.91c-.81.09-1.42.78-1.4 1.6v9.44c0 .42.16.83.45 1.13.3.3.7.47 1.12.47s.82-.17 1.12-.47c.3-.3.46-.71.45-1.13v-9.44c0-.45-.18-.89-.51-1.19a1.55 1.55 0 0 0-1.24-.4Z"></path>
</svg>
